<?xml version="1.0" standalone="no"?>
<!DOCTYPE svg PUBLIC "-//W3C//DTD SVG 20010904//EN"
 "http://www.w3.org/TR/2001/REC-SVG-20010904/DTD/svg10.dtd">
<svg version="1.0" xmlns="http://www.w3.org/2000/svg"
 width="532.000000pt" height="608.000000pt" viewBox="0 0 532.000000 608.000000"
 preserveAspectRatio="xMidYMid meet">

<g transform="translate(0.000000,608.000000) scale(0.100000,-0.100000)"
fill="#000000" stroke="none">
<path d="M2345 5987 c-62 -21 -83 -31 -80 -37 2 -3 -6 -7 -18 -7 -12 -1 -27
-9 -33 -17 -6 -9 -14 -13 -17 -9 -7 6 -11 -12 -8 -30 1 -5 -3 -6 -8 -2 -29 17
-118 -125 -128 -206 -3 -21 -10 -39 -16 -39 -6 0 -7 -17 -3 -42 3 -24 3 -38
-2 -31 -5 7 -21 -45 -41 -130 -18 -78 -34 -149 -37 -157 -5 -21 11 -44 25 -35
18 10 72 127 67 142 -3 7 0 15 6 19 7 5 8 2 3 -7 -5 -10 -5 -11 2 -4 12 11 62
128 70 163 3 12 9 22 13 22 5 0 12 10 15 23 14 47 30 77 42 77 7 0 13 4 13 9
0 17 91 100 128 118 33 16 67 17 294 15 316 -3 359 -12 443 -96 29 -29 65 -78
80 -109 16 -31 32 -57 37 -57 5 0 6 -4 3 -10 -3 -5 -1 -10 5 -10 6 0 9 -4 5
-9 -3 -5 -1 -12 5 -16 6 -4 8 -11 4 -16 -3 -6 2 -19 11 -29 9 -10 19 -33 22
-51 6 -43 58 -145 79 -157 9 -5 15 -13 15 -18 0 -5 2 -17 5 -26 4 -14 9 -16
25 -8 18 10 27 50 11 50 -4 0 -8 8 -9 18 -3 38 -64 273 -83 316 -10 25 -17 46
-13 46 3 0 0 6 -6 13 -6 8 -8 17 -4 20 3 4 1 7 -6 7 -7 0 -10 4 -6 9 3 5 -1
16 -9 24 -8 8 -12 17 -9 21 4 3 0 6 -7 6 -7 0 -11 3 -7 6 15 15 -62 121 -78
106 -5 -4 -5 -2 -2 4 9 15 -29 48 -44 38 -7 -4 -10 -3 -5 4 3 6 -3 13 -14 17
-11 4 -18 11 -15 16 4 5 -1 9 -9 9 -9 0 -16 3 -16 8 0 14 -75 35 -127 36 -28
1 -46 4 -40 8 19 12 -494 7 -528 -5z"/>
<path d="M755 5273 c-62 -13 -145 -39 -145 -45 0 -5 -6 -8 -13 -8 -24 0 -109
-48 -95 -53 7 -3 2 -6 -12 -6 -14 -1 -38 -13 -55 -27 -98 -85 -128 -109 -136
-112 -5 -2 -9 -8 -9 -14 0 -6 -11 -24 -25 -42 -14 -17 -29 -36 -34 -42 -18
-22 -28 -50 -24 -64 4 -13 3 -13 -5 -1 -8 11 -18 -2 -41 -55 -18 -38 -36 -76
-40 -85 -10 -17 -35 -116 -47 -184 -8 -46 -6 -2199 3 -2232 3 -13 8 -21 12
-19 3 2 5 -28 3 -67 -2 -44 3 -98 13 -137 9 -36 18 -76 20 -90 8 -71 51 -190
67 -190 5 0 6 -5 3 -11 -4 -6 1 -17 11 -25 11 -9 13 -13 7 -9 -8 4 -6 -6 4
-24 10 -16 21 -27 25 -25 4 3 5 -2 2 -11 -5 -11 -2 -14 12 -9 14 4 16 3 5 -4
-18 -13 -10 -27 69 -110 59 -62 132 -112 169 -115 16 -1 27 -5 25 -9 -5 -8 18
-15 83 -23 29 -4 55 -11 59 -16 3 -5 18 -9 35 -9 16 0 29 -4 29 -10 0 -5 18
-10 40 -10 22 0 40 -4 40 -9 0 -5 15 -9 33 -8 24 2 32 7 32 21 0 19 -8 25 -55
43 -14 6 -45 20 -68 32 -24 11 -52 21 -62 21 -10 0 -20 6 -23 14 -3 8 -23 22
-44 32 -21 10 -44 26 -51 36 -7 10 -19 18 -25 18 -7 0 -18 9 -25 20 -7 12 -18
17 -29 13 -10 -4 -14 -2 -10 4 9 14 -53 84 -66 76 -6 -3 -7 -1 -3 6 10 15 -13
43 -27 34 -6 -4 -7 -1 -2 7 5 8 2 17 -6 24 -8 6 -14 16 -14 21 -1 19 -37 95
-44 91 -3 -2 -7 14 -8 36 -2 23 -7 46 -12 52 -21 26 -31 145 -31 380 0 444 20
1489 31 1556 6 41 6 92 1 140 -5 41 -8 78 -6 81 3 5 17 347 17 427 0 18 4 27
8 21 4 -6 10 8 14 32 4 24 16 65 26 90 10 26 15 50 12 53 -4 3 -1 6 6 6 8 0
11 6 7 16 -3 8 -2 12 4 9 5 -3 14 4 20 15 6 11 8 20 5 20 -3 0 6 11 20 25 23
24 29 38 26 58 0 4 2 6 6 5 11 -4 78 63 75 74 -1 5 2 7 7 4 5 -4 16 0 24 8 24
24 139 96 154 96 7 0 13 4 13 8 0 16 172 55 233 53 33 -1 94 3 136 8 42 6 105
13 141 15 36 3 85 7 110 10 49 6 152 15 188 15 17 1 22 7 22 30 0 33 -13 37
-120 40 -36 1 -139 6 -230 11 -164 10 -427 11 -465 3z"/>
<path d="M4139 5276 c-2 -2 -76 -7 -164 -11 -246 -11 -258 -12 -272 -32 -11
-14 -11 -19 -1 -29 17 -15 81 -27 73 -14 -3 6 -2 10 4 10 5 0 13 -4 16 -10 3
-5 30 -10 58 -10 29 -1 72 -5 97 -10 32 -6 47 -5 52 3 5 8 8 8 8 1 0 -12 146
-27 268 -28 39 -1 72 -5 72 -9 0 -5 23 -7 50 -5 28 1 50 0 50 -4 0 -5 5 -8 11
-8 17 0 142 -63 164 -83 10 -10 25 -15 33 -12 7 2 11 1 8 -4 -6 -9 54 -57 67
-53 4 1 7 -5 7 -13 0 -8 5 -15 11 -15 5 0 7 5 3 12 -4 7 -3 8 5 4 6 -4 9 -11
6 -16 -8 -13 26 -50 38 -43 6 3 7 1 4 -4 -4 -6 5 -23 18 -39 30 -35 85 -136
85 -157 0 -8 4 -17 9 -19 5 -1 11 -21 14 -43 3 -22 11 -56 17 -75 13 -36 16
-164 39 -1455 15 -816 17 -1054 10 -1049 -4 2 -10 -18 -14 -44 -6 -42 -40
-143 -67 -199 -6 -11 -7 -27 -3 -34 5 -7 4 -10 -3 -5 -6 4 -19 -6 -29 -21 -20
-32 -65 -89 -93 -118 -11 -12 -20 -26 -20 -32 0 -7 -5 -15 -12 -19 -7 -4 -8
-3 -4 4 4 7 3 12 -3 12 -5 0 -11 -4 -13 -8 -1 -5 -31 -27 -65 -51 -35 -23 -63
-46 -63 -52 0 -6 -4 -8 -8 -5 -4 2 -21 -1 -37 -9 -77 -34 -101 -43 -120 -47
-11 -2 -19 -10 -17 -17 1 -7 -2 -10 -8 -6 -16 10 -24 -23 -10 -40 15 -18 34
-20 24 -3 -5 8 -2 9 9 5 10 -3 17 -2 17 4 0 6 9 8 20 4 12 -4 20 -2 20 5 0 6
5 8 10 5 6 -4 17 -1 25 5 8 7 15 10 15 6 0 -3 12 -1 28 5 15 6 43 13 62 15 19
3 37 8 40 12 3 4 10 7 15 7 35 2 101 20 113 31 7 8 20 14 28 14 8 0 14 5 14
10 0 6 4 10 10 10 17 0 49 33 43 43 -3 6 -1 7 4 4 14 -9 74 53 66 66 -3 6 -1
7 6 3 7 -5 19 10 33 43 11 28 24 49 28 46 8 -5 30 39 30 60 0 8 4 15 10 15 5
0 9 3 8 8 -1 4 4 23 11 42 8 19 15 37 16 40 1 3 7 19 14 35 7 17 14 47 14 68
1 21 4 32 6 25 3 -7 13 25 24 72 17 79 19 163 27 1249 8 1225 8 1220 -35 1361
-34 109 -117 256 -137 244 -7 -4 -8 -2 -4 5 8 12 -41 78 -56 74 -4 -2 -7 1 -5
5 3 11 -49 72 -62 72 -5 0 -12 -6 -15 -12 -3 -7 -4 -4 -1 7 3 15 -7 29 -39 53
-24 17 -51 32 -60 32 -9 0 -19 7 -22 15 -4 8 -10 12 -15 9 -5 -3 -9 -1 -9 4 0
5 -11 14 -25 20 -31 14 -46 15 -25 2 8 -5 10 -10 4 -10 -6 0 -21 11 -34 25
-13 14 -30 23 -37 21 -7 -3 -13 -1 -13 5 0 6 -6 9 -12 6 -7 -2 -33 2 -58 9
-41 13 -389 21 -401 10z m506 -226 c3 -5 1 -10 -4 -10 -6 0 -11 5 -11 10 0 6
2 10 4 10 3 0 8 -4 11 -10z m372 -2862 c-2 -18 -4 -4 -4 32 0 36 2 50 4 33 2
-18 2 -48 0 -65z"/>
<path d="M2489 4869 c-8 -5 -34 -9 -59 -9 -26 0 -51 -5 -57 -11 -5 -5 -25 -11
-42 -11 -17 -1 -34 -5 -37 -10 -3 -4 -14 -8 -25 -8 -10 0 -19 -4 -19 -10 0 -5
-9 -10 -19 -10 -11 0 -22 -4 -25 -9 -3 -5 -17 -8 -31 -8 -28 0 -167 -66 -185
-88 -7 -8 -19 -15 -26 -15 -8 0 -14 -3 -14 -7 0 -5 -14 -16 -31 -25 -18 -11
-27 -22 -23 -29 4 -8 3 -9 -4 -5 -13 8 -105 -78 -95 -88 4 -3 0 -6 -9 -6 -13
0 -58 -43 -58 -55 0 -2 -15 -19 -33 -37 -32 -32 -97 -123 -97 -135 0 -4 -6
-14 -14 -22 -25 -28 -116 -213 -109 -224 3 -6 2 -7 -4 -4 -9 6 -53 -84 -53
-108 0 -6 -7 -23 -16 -40 -9 -16 -16 -44 -17 -61 -1 -18 -5 -30 -8 -28 -9 5
-19 -22 -19 -50 0 -12 -4 -26 -10 -32 -13 -13 -38 -165 -50 -302 -19 -214 9
-456 77 -669 10 -29 21 -53 26 -53 4 0 6 -4 3 -8 -11 -18 48 -172 66 -172 5 0
6 -4 3 -10 -3 -5 -2 -10 3 -10 5 0 9 -6 9 -13 0 -21 63 -147 74 -147 6 0 7 -4
4 -10 -3 -5 1 -10 9 -10 9 0 16 -5 16 -11 0 -5 -4 -7 -10 -4 -11 7 55 -124 71
-139 13 -14 32 7 31 36 0 13 -25 75 -56 138 -31 63 -56 121 -56 127 0 7 -5 13
-12 13 -6 0 -9 3 -5 6 3 3 -5 31 -17 62 -51 124 -66 168 -66 189 0 12 -5 23
-11 25 -6 2 -11 16 -11 31 0 15 -3 27 -7 27 -6 0 -10 29 -11 77 0 12 -5 25
-10 28 -6 3 -10 26 -10 51 0 34 -3 43 -12 38 -10 -6 -10 -4 0 8 7 9 9 18 5 21
-13 8 5 448 19 475 10 19 9 25 -2 32 -9 6 -10 10 -3 10 6 0 12 8 12 18 0 9 7
49 16 87 9 39 17 80 18 93 1 12 5 22 9 22 4 0 12 19 18 43 6 23 24 76 40 118
17 42 30 79 30 83 0 4 7 14 15 23 8 8 13 18 10 23 -3 4 1 10 9 13 14 6 62 96
58 110 -1 4 3 7 8 7 6 0 10 6 10 14 0 8 7 17 16 20 9 4 14 9 11 12 -3 3 12 24
34 47 22 23 37 48 34 55 -3 7 -1 11 3 8 11 -7 42 30 43 52 0 9 3 12 5 5 3 -6
37 21 78 62 40 40 82 76 94 79 12 4 22 12 22 17 0 5 5 9 11 9 6 0 25 11 42 24
45 33 125 76 142 76 9 0 23 4 33 10 28 15 113 41 172 52 94 17 289 21 361 8
37 -7 80 -13 97 -14 16 0 28 -4 25 -8 -2 -5 5 -8 17 -8 14 0 19 4 14 13 -4 6
3 2 15 -10 12 -13 32 -23 44 -23 13 0 28 -5 33 -10 6 -6 24 -12 41 -13 17 -1
30 -4 28 -7 -2 -3 35 -24 81 -46 46 -23 81 -37 78 -30 -3 6 4 0 16 -14 12 -14
19 -19 15 -13 -4 9 -1 11 9 7 9 -3 16 -12 16 -20 0 -8 7 -14 15 -14 8 0 15 -4
15 -10 0 -5 7 -10 16 -10 8 0 13 -4 10 -9 -7 -11 22 -23 36 -14 6 3 8 2 5 -4
-4 -6 24 -42 61 -81 37 -38 73 -77 80 -86 7 -9 18 -13 24 -10 6 4 8 3 5 -3 -4
-6 14 -37 38 -69 24 -33 45 -65 45 -73 0 -7 6 -11 14 -8 10 4 13 1 9 -9 -3 -7
0 -14 6 -14 6 0 10 -3 10 -7 -4 -19 24 -72 34 -66 5 3 7 1 3 -5 -3 -6 4 -35
17 -64 52 -115 97 -257 97 -305 0 -2 4 -2 8 1 5 3 9 -9 9 -27 0 -18 5 -70 11
-117 22 -174 23 -236 7 -374 -8 -75 -13 -141 -10 -146 4 -6 1 -10 -5 -10 -8 0
-9 -11 -5 -32 5 -26 4 -30 -5 -18 -9 12 -10 10 -8 -10 1 -14 0 -29 -3 -35 -4
-5 -12 -35 -19 -65 -7 -30 -16 -59 -20 -65 -7 -10 -19 -60 -23 -97 -1 -10 -4
-18 -8 -18 -10 0 -30 -61 -23 -71 3 -5 2 -9 -3 -9 -11 0 -48 -79 -40 -87 4 -3
-2 -12 -13 -20 -11 -8 -20 -23 -20 -34 0 -10 -4 -19 -10 -19 -5 0 -10 -6 -10
-13 0 -8 -14 -33 -30 -56 -17 -23 -28 -46 -25 -52 4 -5 2 -8 -4 -7 -5 2 -20
-11 -33 -27 -13 -17 -52 -57 -88 -90 -80 -72 -78 -70 -60 -60 8 5 12 4 7 0 -4
-5 -15 -10 -25 -11 -9 -2 -18 -8 -20 -13 -2 -6 -10 -11 -17 -11 -8 0 -18 -8
-24 -17 -5 -10 -13 -18 -18 -17 -17 2 -43 -9 -43 -17 0 -5 -9 -9 -21 -9 -11 0
-17 -4 -14 -10 4 -6 -5 -10 -19 -10 -14 0 -26 -4 -26 -9 0 -5 -18 -12 -40 -16
-22 -4 -47 -13 -54 -21 -8 -8 -23 -14 -33 -14 -31 0 -97 -27 -82 -33 13 -5 2
-7 -58 -8 -13 0 -23 -4 -23 -10 0 -5 -10 -9 -22 -8 -13 0 -80 -1 -150 -3 -71
-2 -128 0 -128 5 0 5 -12 8 -27 6 -16 -1 -35 1 -43 4 -8 3 -23 6 -32 6 -37 2
-48 5 -48 12 0 3 -8 9 -17 12 -10 2 -27 8 -38 12 -16 5 -17 5 -5 -4 8 -6 11
-11 6 -11 -6 0 -21 10 -34 23 -14 12 -22 17 -19 10 5 -8 1 -8 -18 0 -14 7 -28
20 -31 30 -3 9 -12 17 -20 17 -8 0 -14 5 -14 10 0 6 -5 10 -11 10 -6 0 -24 15
-40 33 -22 23 -28 27 -24 12 3 -11 -4 -1 -15 23 -13 29 -24 41 -32 36 -7 -4
-10 -4 -6 1 4 4 -8 37 -26 74 -28 54 -36 86 -46 176 -11 101 -11 119 9 229 12
65 20 125 17 133 -3 8 -2 12 3 9 9 -6 41 74 44 109 1 11 8 26 15 34 8 8 11 22
9 32 -3 11 -2 19 3 19 7 0 18 29 26 69 1 7 7 18 13 24 6 6 11 21 11 34 0 13 5
23 11 23 6 0 9 10 7 23 -2 13 1 28 7 34 6 6 19 37 29 69 10 33 24 73 32 91 8
17 14 40 14 52 0 12 5 21 11 21 7 0 9 10 6 25 -2 14 -2 23 1 21 8 -8 132 366
125 377 -3 6 -1 7 5 3 7 -4 14 4 17 21 4 15 11 36 16 47 8 14 7 17 -3 11 -8
-4 -7 -1 2 7 8 7 23 36 33 63 11 28 32 86 48 130 16 44 39 100 50 124 11 24
18 50 15 57 -3 9 1 14 12 14 41 -1 42 -3 98 -280 14 -69 29 -133 35 -142 5
-10 9 -32 9 -48 0 -18 4 -29 10 -25 5 3 7 0 4 -8 -3 -8 2 -22 11 -31 9 -9 11
-16 5 -16 -6 0 -9 -4 -6 -9 3 -5 8 -26 11 -47 11 -86 42 -214 50 -207 4 4 5 2
1 -5 -9 -15 12 -112 24 -112 4 0 5 -12 2 -26 -3 -19 -1 -25 7 -20 8 6 10 0 5
-18 -3 -15 2 -46 15 -80 11 -31 18 -63 14 -72 -3 -10 -2 -15 3 -12 5 4 10 -6
10 -20 1 -15 7 -52 13 -82 7 -30 16 -77 20 -105 5 -27 15 -72 24 -100 8 -27
18 -74 22 -102 6 -45 4 -53 -9 -53 -9 0 -16 5 -16 11 0 6 -7 8 -16 5 -9 -3
-12 -2 -9 5 4 5 -6 22 -22 36 -15 14 -22 22 -14 18 9 -5 7 1 -5 18 -10 15 -24
25 -31 22 -7 -2 -10 1 -7 8 5 13 -104 114 -119 109 -5 -1 -6 2 -2 7 7 13 -72
64 -86 56 -5 -4 -8 -1 -7 7 2 7 -7 14 -19 16 -13 2 -23 8 -23 13 0 6 -4 8 -10
4 -5 -3 -19 4 -30 15 -11 11 -25 18 -30 15 -6 -4 -10 -1 -10 5 0 7 -6 10 -14
7 -7 -3 -23 1 -35 9 -11 8 -21 11 -21 5 0 -5 -14 -2 -32 6 -35 18 -148 30
-148 16 0 -23 35 -53 87 -73 32 -13 63 -27 70 -32 7 -6 17 -7 23 -3 5 3 10 1
10 -5 0 -7 7 -9 17 -6 10 4 14 4 10 0 -4 -4 17 -19 46 -33 28 -14 58 -33 65
-43 7 -10 19 -18 26 -18 7 0 36 -23 64 -51 29 -28 52 -47 52 -43 0 5 6 -2 13
-16 8 -14 19 -24 26 -22 7 1 10 -2 7 -7 -3 -5 7 -23 24 -40 16 -18 29 -34 29
-36 1 -3 1 -8 1 -12 0 -5 13 -23 29 -40 16 -18 34 -46 41 -63 7 -16 16 -27 20
-25 5 3 12 0 16 -6 5 -8 3 -9 -6 -4 -7 4 -11 4 -8 -1 2 -5 11 -24 18 -41 8
-18 17 -33 21 -33 3 0 14 -19 24 -42 42 -103 100 -204 115 -200 6 1 9 -2 6 -7
-8 -12 33 -41 57 -41 10 0 21 9 24 20 3 11 9 17 14 14 5 -2 11 7 15 21 5 22 3
38 -12 90 -6 20 -15 70 -17 88 -1 9 -4 17 -7 17 -3 0 -6 12 -7 28 -4 52 -27
172 -34 172 -3 0 -12 35 -19 77 -6 42 -16 86 -20 97 -5 12 -12 42 -15 69 -4
30 -10 45 -17 41 -6 -4 -8 -3 -5 3 9 14 -10 125 -22 132 -5 4 -9 13 -9 21 2
32 -2 51 -11 46 -4 -3 -6 6 -3 19 2 14 -3 55 -11 92 -9 38 -21 96 -28 131 -6
34 -16 65 -20 68 -5 3 -9 17 -9 32 0 15 -7 56 -15 92 -8 36 -17 82 -20 103 -4
24 -10 35 -17 31 -6 -4 -8 -3 -4 4 9 14 -5 123 -14 117 -5 -3 -6 5 -2 17 3 11
1 19 -4 16 -5 -4 -9 4 -10 15 -1 36 -15 120 -24 152 -19 65 -29 113 -40 190
-11 76 -33 161 -51 196 -4 9 -5 26 -2 38 3 11 1 21 -4 21 -8 0 -13 25 -13 77
0 12 -5 25 -10 28 -5 3 -7 12 -4 20 16 40 -53 135 -98 135 -33 0 -97 -97 -82
-122 4 -7 2 -8 -4 -4 -8 4 -16 -4 -22 -21 -6 -15 -14 -36 -20 -45 -6 -11 -6
-18 3 -21 7 -3 4 -6 -5 -6 -10 -1 -18 -8 -18 -17 0 -9 -6 -28 -14 -42 -15 -28
-31 -81 -28 -94 1 -5 -3 -8 -9 -8 -5 0 -7 -4 -4 -10 3 -5 2 -10 -3 -10 -5 0
-17 -25 -27 -57 -10 -31 -24 -68 -31 -82 -8 -14 -14 -33 -14 -42 0 -8 -4 -19
-8 -25 -5 -5 -19 -38 -32 -74 -13 -36 -27 -70 -32 -77 -5 -6 -10 -27 -11 -46
-1 -20 -4 -33 -6 -31 -12 11 -63 -144 -54 -160 3 -6 2 -7 -2 -3 -10 9 -44 -67
-44 -100 -1 -13 -5 -23 -10 -23 -9 0 -22 -50 -21 -87 0 -14 -6 -23 -15 -23 -9
0 -15 -10 -15 -25 0 -14 -4 -25 -9 -25 -5 0 -11 -12 -14 -27 -2 -16 -23 -79
-46 -140 -22 -62 -38 -113 -35 -113 3 0 -2 -7 -11 -16 -9 -10 -14 -25 -12 -36
3 -11 1 -16 -6 -11 -6 4 -8 -2 -4 -16 3 -13 3 -20 -1 -17 -8 9 -42 -79 -52
-134 -5 -25 -14 -63 -20 -85 -19 -67 -31 -158 -25 -195 4 -27 3 -32 -5 -20 -9
12 -10 6 -6 -25 4 -27 2 -35 -4 -25 -13 21 -13 -80 0 -114 6 -18 6 -26 -1 -26
-6 0 -7 -9 -3 -22 4 -13 7 -34 5 -48 -6 -79 71 -254 107 -242 7 2 10 -2 7 -10
-3 -8 5 -24 17 -35 13 -12 29 -29 36 -38 7 -8 18 -12 24 -9 7 4 8 2 4 -4 -8
-13 63 -64 77 -55 6 3 7 1 4 -4 -4 -6 1 -17 10 -24 14 -12 16 -12 8 1 -4 8 3
4 16 -10 13 -14 51 -38 84 -54 33 -15 69 -32 80 -37 11 -6 33 -11 49 -13 15
-2 31 -9 36 -16 4 -7 14 -10 21 -8 8 3 23 0 34 -6 33 -18 387 -24 409 -7 6 4
45 16 86 26 41 9 89 23 107 31 17 8 36 14 42 14 15 0 120 51 127 61 3 5 14 9
25 9 10 0 19 5 19 10 0 6 7 10 16 10 8 0 13 4 10 9 -3 5 2 8 12 7 9 0 16 5 14
12 -1 6 5 12 13 12 21 0 85 42 85 56 0 6 8 18 18 25 16 13 16 13 2 -6 -8 -11
3 -4 25 15 23 19 37 38 32 41 -5 4 -4 9 2 13 6 4 11 4 11 1 0 -8 70 67 90 95
8 12 32 45 53 73 43 59 129 231 131 264 0 11 4 19 9 16 7 -4 9 1 11 30 1 6 6
17 12 22 17 15 67 211 58 226 -4 8 -3 10 4 5 8 -5 12 5 12 33 0 22 5 43 11 47
6 3 9 21 7 39 -2 19 0 31 4 29 4 -3 8 7 9 23 0 15 3 37 5 48 3 11 6 127 6 257
1 173 -2 241 -11 252 -7 8 -13 32 -15 53 -6 70 -18 137 -32 188 -30 103 -57
180 -69 195 -7 8 -10 21 -8 28 3 6 0 12 -7 12 -6 0 -9 4 -6 9 9 14 -13 63 -24
56 -6 -4 -10 -3 -9 2 5 31 -2 55 -17 49 -8 -3 -13 -2 -10 3 3 5 0 22 -7 37
-19 45 -107 173 -125 184 -10 5 -13 10 -8 10 5 0 -5 13 -22 29 -16 16 -27 33
-24 37 4 4 -1 4 -11 1 -12 -4 -16 -3 -11 4 8 14 -144 159 -168 159 -11 0 -17
4 -14 8 2 4 -12 19 -32 32 -20 14 -39 27 -42 31 -7 8 -173 88 -190 91 -8 2
-18 7 -21 12 -4 5 -18 9 -33 9 -14 0 -23 3 -20 8 3 5 -3 6 -12 2 -13 -5 -15
-3 -9 7 6 10 4 12 -8 7 -10 -3 -17 -2 -17 3 0 6 -18 10 -39 10 -22 0 -42 4
-45 8 -3 5 -21 9 -41 10 -19 1 -44 6 -55 12 -24 13 -320 12 -341 -1z m1062
-376 c13 -16 12 -17 -3 -4 -10 7 -18 15 -18 17 0 8 8 3 21 -13z m-1644 -2045
c-3 -7 -5 -2 -5 12 0 14 2 19 5 13 2 -7 2 -19 0 -25z"/>
<path d="M3790 4729 c0 -14 40 -81 53 -90 5 -3 8 -10 7 -15 -2 -14 43 -104 52
-104 4 0 8 -8 8 -17 1 -23 25 -55 34 -45 5 4 7 0 6 -8 -4 -26 0 -41 8 -36 4 2
9 -7 10 -22 1 -14 8 -29 15 -34 6 -4 8 -8 4 -8 -4 0 -2 -10 5 -22 7 -13 11
-29 10 -35 -2 -7 2 -13 8 -13 5 0 9 -3 8 -7 -5 -18 14 -53 24 -47 7 5 9 1 5
-9 -8 -21 46 -160 58 -149 5 4 5 1 1 -6 -9 -16 2 -85 12 -78 4 2 8 -19 10 -48
2 -28 7 -52 12 -54 6 -2 10 -16 10 -31 0 -15 3 -31 7 -35 4 -4 8 -19 10 -34 2
-15 11 -74 20 -132 21 -140 21 -507 -1 -635 -9 -49 -18 -106 -21 -125 -3 -19
-10 -47 -16 -62 -6 -15 -9 -34 -6 -42 3 -7 1 -18 -4 -23 -5 -5 -11 -23 -12
-40 -1 -17 -4 -29 -7 -26 -2 2 -10 -15 -16 -39 -7 -24 -24 -74 -38 -113 -15
-38 -25 -74 -22 -81 2 -6 -4 -18 -15 -27 -10 -9 -20 -25 -21 -34 -3 -41 -19
-83 -30 -83 -5 0 -7 -4 -3 -9 3 -5 1 -12 -4 -16 -12 -7 -84 -142 -87 -163 -2
-8 -11 -24 -22 -36 -11 -11 -17 -27 -14 -35 2 -8 0 -11 -6 -8 -5 4 -15 -6 -22
-22 -6 -16 -18 -32 -26 -35 -8 -3 -14 -12 -14 -20 0 -8 -4 -16 -8 -18 -5 -1
-25 -30 -45 -63 -20 -33 -48 -73 -62 -89 -14 -16 -25 -32 -25 -36 0 -4 -11
-20 -25 -36 -26 -30 -31 -49 -16 -58 12 -8 91 25 85 35 -3 5 4 9 16 9 30 0
142 59 135 71 -4 5 -2 8 3 7 13 -4 92 44 92 54 0 5 5 8 11 8 6 0 26 15 44 33
116 112 135 131 135 139 0 4 12 21 28 37 58 64 114 149 106 162 -3 5 0 9 6 9
13 0 51 61 44 72 -3 4 0 8 5 8 6 0 10 3 9 8 -1 4 3 17 10 30 7 12 9 22 5 22
-4 0 -3 4 2 8 20 14 66 132 61 155 -3 12 -3 15 1 8 7 -17 52 110 53 150 0 14
4 29 9 35 14 14 39 190 51 354 8 114 7 180 -4 305 -16 179 -35 302 -45 287 -3
-6 -7 9 -8 31 -3 72 -84 327 -104 327 -6 0 -7 5 -4 10 3 6 1 10 -5 10 -6 0 -8
5 -5 10 3 6 1 10 -4 10 -6 0 -10 3 -9 8 4 16 -14 72 -22 67 -5 -3 -10 7 -12
22 -2 17 -8 27 -16 25 -8 -1 -11 2 -8 6 7 12 -46 111 -79 146 -13 14 -25 29
-25 31 0 3 0 10 0 16 0 6 -7 8 -17 5 -10 -4 -14 -4 -11 0 16 16 -82 142 -105
136 -7 -2 -9 0 -5 4 11 10 -99 117 -112 109 -6 -3 -7 1 -4 9 4 10 1 16 -9 16
-8 0 -17 4 -19 8 -5 12 -65 52 -77 52 -6 0 -11 -5 -11 -11z"/>
<path d="M3014 605 c25 -19 46 -19 46 0 0 10 -10 15 -32 15 -31 -1 -32 -1 -14
-15z"/>
<path d="M3880 559 c0 -5 5 -7 10 -4 6 3 10 8 10 11 0 2 -4 4 -10 4 -5 0 -10
-5 -10 -11z"/>
<path d="M4190 499 c0 -5 5 -7 10 -4 6 3 10 8 10 11 0 2 -4 4 -10 4 -5 0 -10
-5 -10 -11z"/>
<path d="M3595 446 c-9 -21 -14 -43 -12 -49 2 -6 11 9 21 32 9 24 14 46 12 49
-3 3 -13 -12 -21 -32z"/>
<path d="M385 420 c3 -5 8 -10 11 -10 2 0 4 5 4 10 0 6 -5 10 -11 10 -5 0 -7
-4 -4 -10z"/>
<path d="M4346 122 c-3 -5 -2 -19 1 -32 6 -22 7 -23 14 -4 4 10 8 25 8 32 1
14 -15 16 -23 4z"/>
</g>
</svg>
